<?xml version="1.0" standalone="no"?>
<!DOCTYPE svg PUBLIC "-//W3C//DTD SVG 20010904//EN"
 "http://www.w3.org/TR/2001/REC-SVG-20010904/DTD/svg10.dtd">
<svg version="1.0" xmlns="http://www.w3.org/2000/svg"
 width="1024.000000pt" height="1024.000000pt" viewBox="0 0 1024.000000 1024.000000"
 preserveAspectRatio="xMidYMid meet">
<metadata>
Created by potrace 1.14, written by Peter Selinger 2001-2017
</metadata>
<g transform="translate(0.000000,1024.000000) scale(0.100000,-0.100000)"
fill="#000000" stroke="none">
<path d="M5010 9763 c0 -5 -17 -9 -37 -10 -45 -2 -132 -12 -153 -18 -8 -2 -35
-7 -60 -10 -25 -4 -50 -11 -56 -16 -6 -5 -14 -6 -17 -3 -3 3 -12 2 -19 -2 -13
-9 -29 -13 -60 -16 -10 -1 -18 -5 -18 -9 0 -4 -12 -10 -27 -13 -48 -11 -133
-48 -133 -57 0 -5 -3 -8 -7 -7 -14 4 -53 -13 -53 -23 0 -5 -4 -9 -9 -9 -8 0
-156 -82 -221 -122 -58 -35 -126 -72 -133 -73 -4 0 -12 -7 -17 -15 -5 -8 -10
-11 -10 -6 0 5 -9 1 -20 -9 -11 -10 -20 -14 -20 -9 0 5 -4 4 -8 -2 -4 -6 -32
-25 -62 -41 -30 -17 -101 -58 -157 -91 -57 -34 -103 -58 -103 -54 0 4 -6 0
-13 -9 -7 -8 -38 -28 -69 -44 -32 -16 -58 -33 -58 -37 0 -4 -4 -8 -9 -8 -13 0
-295 -162 -303 -174 -4 -6 -8 -8 -8 -4 0 4 -24 -7 -52 -25 -29 -17 -65 -39
-81 -47 -92 -50 -324 -186 -335 -197 -7 -7 -17 -13 -22 -13 -12 0 -133 -72
-142 -85 -4 -5 -8 -6 -8 -2 0 5 -12 0 -27 -11 -16 -10 -62 -38 -103 -61 -41
-23 -82 -46 -90 -51 -52 -33 -172 -100 -180 -100 -6 0 -10 -4 -10 -9 0 -5 -8
-11 -17 -15 -10 -3 -32 -13 -48 -23 -17 -10 -53 -31 -80 -48 -28 -16 -53 -28
-57 -27 -5 1 -8 -3 -8 -9 0 -5 -5 -7 -10 -4 -5 3 -10 2 -10 -3 0 -5 -10 -14
-22 -20 -13 -6 -50 -27 -83 -47 -33 -19 -72 -40 -87 -46 -16 -6 -28 -14 -28
-18 0 -3 -12 -12 -28 -19 -72 -32 -272 -208 -347 -306 -17 -21 -40 -50 -53
-65 -12 -14 -25 -34 -28 -43 -3 -10 -10 -18 -15 -18 -5 0 -9 -7 -9 -15 0 -8
-3 -15 -8 -15 -4 0 -19 -21 -32 -47 -14 -27 -28 -50 -31 -53 -21 -18 -139
-279 -142 -312 -1 -10 -6 -18 -11 -18 -5 0 -7 -3 -3 -6 3 -3 -1 -27 -9 -52 -8
-26 -17 -58 -20 -72 -2 -14 -7 -32 -10 -40 -4 -8 -8 -33 -9 -55 -6 -68 -13
-114 -20 -125 -3 -5 -1 -10 5 -10 8 0 8 -6 0 -20 -8 -15 -8 -20 1 -20 9 0 9
-3 0 -14 -7 -8 -8 -17 -3 -20 10 -6 9 -36 -1 -53 -4 -6 -3 -14 3 -18 6 -4 7
-12 3 -18 -10 -16 -10 -38 -1 -58 4 -9 4 -19 1 -23 -11 -11 -10 -46 1 -46 6 0
5 -4 -2 -9 -17 -11 -17 -21 0 -32 11 -8 11 -10 0 -18 -17 -11 -17 -21 0 -32 8
-6 9 -9 1 -9 -11 0 -11 -45 0 -57 4 -3 2 -14 -4 -24 -7 -14 -6 -19 2 -19 8 0
9 -4 0 -13 -8 -10 -7 -17 1 -25 9 -9 9 -12 0 -12 -14 0 -12 -21 3 -32 6 -5 5
-11 -3 -17 -17 -11 -17 -21 0 -32 7 -5 8 -9 2 -9 -14 0 -14 -30 0 -30 6 0 5
-4 -2 -9 -17 -11 -17 -21 0 -32 8 -6 9 -9 1 -9 -11 0 -11 -45 0 -57 4 -3 2
-14 -4 -24 -7 -14 -6 -19 2 -19 8 0 9 -4 0 -13 -8 -10 -7 -17 1 -25 9 -9 9
-12 0 -12 -14 0 -12 -21 3 -32 6 -5 5 -11 -3 -17 -17 -11 -17 -21 0 -32 8 -6
9 -9 1 -9 -11 0 -11 -45 0 -57 4 -3 2 -14 -4 -24 -7 -14 -6 -19 2 -19 8 0 9
-4 0 -13 -8 -10 -7 -17 1 -25 7 -7 8 -12 2 -12 -6 0 -11 -7 -11 -15 0 -8 5
-15 10 -15 5 0 4 -6 -2 -14 -8 -10 -9 -16 -1 -21 7 -4 7 -12 0 -26 -8 -14 -7
-19 1 -19 8 0 9 -4 0 -13 -8 -10 -7 -17 1 -25 7 -7 8 -12 2 -12 -6 0 -11 -7
-11 -15 0 -8 4 -15 9 -15 5 0 4 -8 -1 -18 -6 -10 -6 -24 -1 -32 5 -8 6 -19 2
-24 -10 -18 -9 -46 2 -46 6 0 5 -4 -2 -9 -8 -4 -14 -12 -14 -16 0 -4 6 -12 14
-16 11 -8 11 -10 0 -18 -17 -11 -17 -21 0 -32 8 -6 9 -9 1 -9 -11 0 -11 -45 0
-57 4 -3 2 -14 -4 -24 -7 -14 -6 -19 2 -19 8 0 9 -4 0 -13 -8 -10 -7 -17 1
-25 7 -7 8 -12 2 -12 -6 0 -11 -7 -11 -15 0 -8 5 -15 10 -15 5 0 3 -8 -4 -17
-12 -15 -12 -16 1 -8 13 7 13 6 2 -7 -9 -11 -10 -18 -2 -23 6 -3 7 -12 3 -18
-10 -16 -10 -38 -1 -58 4 -9 4 -19 1 -23 -11 -11 -10 -46 1 -46 6 0 5 -4 -2
-9 -17 -11 -17 -21 0 -32 10 -7 10 -9 0 -9 -9 0 -10 -5 -3 -18 6 -11 6 -24 0
-35 -7 -12 -6 -17 2 -17 8 0 9 -4 0 -13 -8 -10 -7 -17 1 -25 7 -7 8 -12 2 -12
-6 0 -11 -7 -11 -15 0 -8 5 -15 10 -15 5 0 4 -6 -2 -14 -8 -10 -9 -16 -1 -21
7 -4 7 -12 0 -26 -8 -14 -7 -19 1 -19 8 0 9 -4 0 -13 -8 -10 -7 -17 1 -25 9
-9 9 -12 0 -12 -14 0 -12 -21 3 -32 6 -5 5 -11 -3 -17 -17 -11 -17 -21 0 -32
8 -6 9 -9 1 -9 -11 0 -11 -45 0 -57 4 -3 2 -14 -4 -24 -7 -14 -6 -19 2 -19 8
0 9 -4 0 -13 -8 -10 -7 -17 1 -25 9 -9 9 -12 0 -12 -14 0 -12 -21 3 -33 6 -4
5 -10 -3 -16 -17 -11 -17 -21 0 -32 7 -5 8 -9 2 -9 -6 0 -11 -7 -11 -15 0 -8
5 -15 11 -15 6 0 5 -4 -2 -9 -17 -11 -17 -21 0 -32 8 -6 9 -9 1 -9 -11 0 -11
-45 0 -57 4 -3 2 -14 -4 -24 -7 -14 -6 -19 2 -19 8 0 9 -4 0 -13 -8 -10 -7
-17 1 -25 9 -9 9 -12 0 -12 -14 0 -12 -21 3 -32 6 -5 5 -11 -3 -17 -17 -11
-17 -21 0 -32 7 -5 8 -9 2 -9 -9 0 -12 -41 -4 -75 1 -5 1 -12 0 -15 -7 -19 -5
-50 4 -50 6 0 5 -4 -2 -9 -17 -11 -17 -21 0 -32 11 -8 11 -10 0 -18 -8 -4 -14
-12 -14 -16 0 -4 6 -12 14 -16 7 -5 8 -9 2 -9 -13 0 -14 -31 -1 -48 6 -7 6
-12 0 -12 -5 0 -10 -7 -10 -15 0 -8 5 -15 10 -15 5 0 5 -6 -2 -13 -8 -10 -7
-17 1 -25 9 -9 9 -12 -1 -12 -7 0 -9 -5 -4 -12 4 -7 9 -24 10 -38 3 -39 11
-103 17 -130 15 -72 29 -126 35 -135 3 -5 7 -19 8 -30 2 -11 7 -29 12 -40 5
-11 15 -36 22 -55 25 -69 109 -236 148 -297 23 -34 41 -66 41 -72 0 -5 4 -11
8 -13 4 -1 36 -40 71 -85 35 -46 67 -83 72 -83 5 0 9 -4 9 -10 0 -8 36 -44
130 -130 19 -18 55 -46 80 -63 25 -17 47 -33 50 -37 3 -3 31 -19 62 -35 32
-17 58 -33 58 -37 0 -5 7 -8 15 -8 8 0 24 -9 35 -20 11 -11 20 -18 20 -15 0 8
94 -45 101 -57 3 -5 9 -9 13 -9 10 2 68 -30 84 -45 7 -8 18 -12 23 -9 5 4 9 2
9 -2 0 -5 22 -20 50 -34 27 -13 50 -27 50 -31 0 -5 5 -8 11 -8 6 0 23 -9 39
-20 15 -11 30 -17 34 -13 3 3 6 1 6 -5 0 -7 7 -12 15 -12 8 0 15 -3 15 -8 0
-8 61 -38 73 -34 4 1 7 -2 7 -7 0 -9 224 -141 239 -141 5 0 14 -7 21 -15 7 -8
16 -12 21 -9 5 3 9 1 9 -4 0 -7 33 -28 112 -69 15 -8 30 -19 33 -24 4 -5 11
-7 16 -4 5 4 9 1 9 -4 0 -6 7 -11 15 -11 8 0 15 -4 15 -8 0 -4 12 -13 28 -19
28 -12 103 -54 112 -63 3 -3 19 -12 35 -20 17 -8 37 -19 45 -26 8 -6 35 -22
60 -35 25 -13 47 -27 50 -30 3 -3 19 -12 35 -21 17 -8 46 -24 65 -35 19 -11
100 -58 180 -104 80 -45 147 -85 150 -88 3 -3 23 -15 45 -27 72 -38 140 -76
155 -88 8 -7 26 -18 40 -24 14 -7 48 -26 75 -42 28 -16 61 -35 75 -42 14 -7
27 -15 30 -18 3 -3 16 -11 29 -18 13 -8 38 -22 56 -32 68 -38 80 -45 93 -58 7
-7 17 -10 22 -7 5 3 10 2 12 -3 5 -13 289 -172 308 -172 4 0 23 -6 41 -14 19
-8 39 -15 44 -16 6 -1 21 -7 35 -12 14 -5 32 -11 40 -13 8 -2 46 -11 83 -20
37 -8 72 -13 77 -10 6 4 10 2 10 -3 0 -6 10 -10 23 -10 35 1 104 -9 116 -16 6
-4 11 -1 11 6 0 10 2 10 9 0 12 -19 15 -19 36 -2 11 8 16 10 12 4 -4 -7 14
-11 54 -12 41 -1 58 2 53 10 -5 8 -3 8 7 2 19 -12 70 -13 92 -2 11 6 17 5 17
-2 0 -6 5 -8 10 -5 6 4 27 9 48 11 38 4 73 9 139 20 20 3 47 10 60 15 13 5 23
7 23 4 0 -2 24 4 53 14 28 10 56 18 60 19 18 1 123 47 129 56 4 6 8 8 8 3 0
-4 19 3 43 15 23 12 45 21 50 20 4 -1 7 2 7 7 0 5 12 16 28 24 34 17 88 48
177 101 39 22 81 47 95 54 38 19 66 36 83 51 9 7 22 14 29 15 8 1 27 11 43 22
17 12 50 32 75 45 25 13 47 27 50 30 3 3 31 18 63 34 31 16 57 32 57 36 0 4
12 12 28 18 15 6 54 27 87 46 33 20 68 39 78 42 9 3 17 9 17 13 0 5 12 13 28
19 15 6 41 20 57 31 17 11 37 23 45 27 8 4 48 26 88 50 41 24 78 43 83 43 5 0
9 4 9 9 0 5 9 13 21 16 12 4 72 38 135 75 62 37 115 65 118 62 4 -3 6 0 6 6 0
7 6 12 14 12 8 0 16 3 18 8 3 7 66 43 115 66 13 6 23 14 23 19 0 4 6 7 14 7 8
0 21 6 28 12 7 7 30 22 50 33 119 65 194 109 200 119 4 6 8 7 8 2 0 -5 8 -3
18 5 19 16 53 36 97 58 17 8 32 17 35 21 3 3 32 21 65 40 93 52 128 71 160 91
17 11 37 22 45 26 8 3 27 15 43 25 15 11 27 16 27 11 0 -4 4 -3 8 3 6 10 249
154 259 154 2 0 19 11 37 25 18 14 36 25 39 25 4 0 15 8 25 17 10 10 43 38 72
63 51 43 106 98 149 150 12 14 30 36 42 49 50 59 143 199 155 234 4 9 11 17
16 17 5 0 6 5 3 10 -3 6 -1 10 5 10 6 0 8 5 5 10 -3 5 -2 10 4 10 5 0 13 10
17 23 3 12 19 49 34 82 26 55 50 118 78 204 6 19 9 38 6 42 -3 5 -1 9 4 9 5 0
9 6 10 13 1 6 6 32 11 57 18 81 25 163 25 307 1 79 5 143 10 143 5 0 4 6 -1
13 -5 6 -8 30 -6 52 2 22 3 45 3 50 -4 163 -4 205 3 205 5 0 5 6 0 13 -10 16
-11 57 -1 84 4 13 4 23 0 23 -4 0 -7 18 -7 40 0 22 4 40 9 40 5 0 4 6 -1 12
-9 13 -9 62 0 121 2 15 1 29 -2 31 -9 6 -6 130 3 144 4 7 3 12 -2 12 -10 0 -9
50 2 68 4 7 4 12 -1 12 -4 0 -8 18 -8 40 0 22 4 40 8 40 5 0 5 6 1 12 -11 18
-12 48 -2 54 4 3 5 10 1 16 -10 17 -9 198 1 198 5 0 4 6 -1 13 -5 6 -8 30 -6
52 2 22 3 45 3 50 -4 163 -4 205 3 205 5 0 5 6 0 13 -10 16 -11 57 -1 85 4 12
4 22 0 22 -4 0 -7 18 -7 40 0 22 4 40 9 40 5 0 4 6 -1 13 -9 12 -9 61 0 120 2
15 1 29 -2 31 -9 6 -6 130 3 144 4 7 3 12 -2 12 -10 0 -9 50 2 68 4 7 4 12 -1
12 -4 0 -8 18 -8 40 0 22 4 40 8 40 5 0 5 6 1 12 -11 18 -12 48 -2 54 4 3 5
10 1 16 -10 17 -9 198 1 198 5 0 4 6 -1 13 -5 6 -8 30 -6 52 2 22 3 45 3 50
-4 164 -4 205 4 205 5 0 4 6 -2 13 -7 8 -7 18 -2 27 5 8 6 19 2 25 -3 5 -7 33
-8 60 -2 75 -12 147 -30 218 -3 12 -7 32 -10 44 -2 12 -9 34 -14 48 -5 14 -7
25 -4 25 4 0 1 7 -6 15 -7 8 -9 15 -5 15 4 0 3 6 -2 13 -6 6 -16 30 -23 52 -7
22 -16 45 -21 51 -5 6 -6 14 -2 17 3 4 0 7 -7 7 -7 0 -11 3 -8 6 15 14 -194
371 -223 382 -5 2 -9 8 -9 13 0 11 -11 24 -114 129 -77 80 -155 150 -166 150
-3 0 -15 8 -26 18 -10 10 -46 33 -79 52 -33 19 -61 37 -63 42 -2 4 -12 8 -23
8 -10 0 -19 5 -19 10 0 6 -7 10 -15 10 -8 0 -15 5 -15 11 0 5 -4 7 -10 4 -5
-3 -10 -3 -10 2 0 4 -23 19 -50 32 -28 14 -50 29 -50 35 0 5 -3 7 -6 3 -4 -3
-26 7 -50 23 -23 17 -45 30 -47 30 -4 0 -48 25 -212 120 -16 10 -64 37 -105
60 -41 24 -85 49 -97 57 -13 7 -24 12 -26 11 -2 -2 -11 5 -21 15 -10 9 -24 17
-32 17 -8 0 -14 3 -14 8 0 4 -23 18 -50 31 -28 14 -50 28 -50 32 0 4 -11 10
-24 13 -14 3 -31 12 -38 19 -7 6 -31 21 -53 33 -53 27 -89 48 -95 54 -3 3 -27
17 -53 30 -26 14 -56 32 -65 40 -10 8 -23 16 -30 18 -7 1 -32 14 -55 29 -23
15 -48 28 -56 29 -8 2 -17 7 -20 11 -8 12 -150 93 -162 93 -5 0 -9 5 -9 10 0
6 -4 10 -10 10 -5 0 -55 27 -111 60 -55 33 -103 60 -105 60 -2 0 -27 15 -56
33 -29 18 -65 39 -80 46 -16 8 -28 18 -28 23 0 5 -4 7 -9 3 -5 -3 -17 2 -25
11 -9 8 -16 13 -16 9 0 -3 -12 2 -27 13 -28 20 -65 41 -163 95 -30 17 -56 34
-58 39 -2 4 -8 8 -13 8 -5 0 -54 27 -110 60 -55 33 -103 60 -106 60 -3 0 -17
9 -33 20 -15 11 -30 17 -34 13 -3 -3 -6 -2 -6 4 0 5 -18 18 -40 28 -22 10 -40
22 -40 27 0 5 -4 7 -9 4 -5 -4 -11 -3 -13 1 -4 11 -120 69 -130 65 -4 -1 -8 2
-8 8 0 6 -3 9 -7 8 -5 -1 -21 4 -38 11 -16 7 -35 14 -42 15 -7 1 -16 5 -19 9
-4 4 -18 7 -30 7 -13 0 -25 4 -28 8 -2 4 -19 9 -37 10 -18 1 -38 7 -44 12 -7
5 -14 8 -16 5 -3 -2 -22 0 -44 5 -48 11 -135 22 -192 24 -23 1 -45 5 -49 9 -4
3 -15 2 -25 -3 -12 -7 -20 -7 -24 0 -4 7 -13 7 -26 0 -10 -6 -19 -7 -19 -2 0
5 -7 9 -15 9 -8 0 -15 -3 -15 -6 0 -9 -43 -6 -58 3 -7 4 -12 3 -12 -1z"/>
</g>
</svg>
